<?xml version="1.0" standalone="no"?>
<!DOCTYPE svg PUBLIC "-//W3C//DTD SVG 20010904//EN"
 "http://www.w3.org/TR/2001/REC-SVG-20010904/DTD/svg10.dtd">
<svg version="1.0" xmlns="http://www.w3.org/2000/svg"
 width="1024.000000pt" height="1024.000000pt" viewBox="0 0 1024.000000 1024.000000"
 preserveAspectRatio="xMidYMid meet">
<metadata>
Created by potrace 1.14, written by Peter Selinger 2001-2017
</metadata>
<g transform="translate(0.000000,1024.000000) scale(0.100000,-0.100000)"
fill="#000000" stroke="none">
<path d="M0 8523 l0 -1718 56 -2 c32 -1 62 -7 72 -16 9 -8 31 -22 49 -31 55
-27 63 -42 56 -94 -8 -63 -28 -100 -57 -108 -14 -3 -27 -13 -31 -21 -4 -13
-18 -15 -75 -10 l-70 6 0 -1595 c0 -1147 3 -1594 11 -1594 6 0 13 9 16 20 5
20 33 29 33 11 0 -5 3 -17 7 -27 5 -13 3 -15 -8 -9 -11 7 -12 6 -2 -6 7 -8 10
-28 7 -43 -3 -18 3 -37 17 -57 12 -17 24 -51 27 -75 4 -38 2 -44 -14 -44 -22
0 -68 48 -72 76 -2 11 -3 33 -3 51 0 18 -4 35 -9 38 -6 4 -10 -593 -10 -1634
l0 -1641 2564 0 2563 0 7 73 c7 75 -5 119 -39 147 -18 15 -64 20 -71 9 -6 -10
-45 -12 -68 -3 -9 4 -21 15 -27 26 -7 12 -7 18 -1 14 5 -3 12 1 15 9 4 8 -2
16 -13 20 -25 8 -43 -3 -36 -21 5 -12 2 -12 -15 -3 -12 6 -19 7 -15 1 9 -16
-33 -62 -58 -62 -12 0 -37 13 -54 28 -24 22 -39 27 -62 24 -24 -3 -32 0 -39
19 -5 13 -10 20 -10 15 -1 -5 -12 1 -26 14 -14 14 -36 25 -48 26 -12 1 -29 5
-39 8 -9 4 -31 6 -50 4 -26 -2 -33 -7 -31 -23 1 -11 -1 -27 -4 -35 -4 -8 -7
-31 -7 -50 -1 -31 -4 -35 -38 -42 -37 -7 -87 3 -89 19 -1 5 -3 21 -5 37 -3 31
-32 69 -46 60 -4 -3 -7 0 -6 8 2 7 -4 12 -14 10 -9 -1 -22 7 -28 18 -9 16 -7
24 9 42 11 11 18 25 15 30 -3 5 -1 15 6 23 8 10 8 15 -1 20 -17 11 10 25 49
25 17 0 32 4 32 9 0 5 30 9 68 10 50 1 75 -4 100 -19 17 -11 32 -24 32 -30 0
-5 10 -14 22 -21 18 -10 20 -9 15 5 -4 9 -3 15 1 15 19 -3 33 2 27 10 -6 11 5
23 59 66 36 29 86 109 86 138 0 40 21 42 369 43 386 1 390 1 626 49 97 19 197
35 221 35 24 0 65 8 91 19 26 10 89 26 140 36 121 23 125 28 127 152 1 94 0
98 -21 101 -15 2 -34 -8 -57 -31 -40 -40 -77 -55 -173 -67 -82 -10 -198 -34
-235 -49 -34 -13 -385 -31 -603 -31 -110 0 -172 -5 -200 -14 -35 -12 -187 -29
-255 -27 -207 4 -356 11 -400 20 -30 7 -73 14 -95 17 -22 3 -65 9 -95 14 -30
5 -83 7 -117 5 -45 -3 -64 0 -73 10 -7 8 -27 17 -46 21 -29 5 -34 10 -34 35 0
28 2 29 44 29 31 0 46 5 50 16 10 27 7 44 -14 61 -11 10 -20 25 -20 34 0 9 -7
20 -16 23 -9 4 -14 13 -10 21 3 8 0 15 -7 15 -7 0 -18 9 -25 20 -7 11 -9 20
-4 20 12 0 67 54 67 65 -1 18 -25 55 -36 55 -6 0 -17 7 -25 15 -9 8 -24 15
-35 15 -25 0 -24 26 1 42 22 14 27 29 8 26 -7 -2 -12 4 -13 12 0 8 -11 16 -23
18 -21 3 -23 7 -17 38 3 19 2 33 -2 32 -17 -5 -53 24 -68 55 -15 32 -65 57
-114 57 -11 0 -23 5 -26 10 -3 6 -14 10 -23 10 -24 0 -58 58 -43 73 18 18 13
25 -16 19 -21 -4 -25 -2 -20 10 8 23 -12 38 -42 32 -19 -4 -34 1 -53 18 -15
13 -43 34 -63 48 -32 21 -53 41 -123 112 -23 25 -72 58 -84 58 -7 0 -21 9 -31
20 -21 24 -37 26 -37 3 0 -13 -3 -14 -12 -5 -7 7 -24 12 -39 12 -30 0 -42 11
-34 32 3 7 47 33 98 57 50 23 106 53 122 65 17 13 54 35 83 51 l53 29 67 -71
c60 -63 221 -204 279 -243 12 -8 48 -34 82 -57 49 -35 66 -42 90 -37 16 4 32
12 35 20 3 9 0 11 -11 7 -12 -5 -13 -2 -5 13 6 13 6 27 0 44 -6 15 -12 20 -15
12 -3 -7 0 -19 6 -26 9 -10 7 -15 -8 -19 -28 -7 -48 8 -33 26 14 16 6 27 -19
27 -14 0 -18 7 -16 30 1 17 8 30 15 30 7 0 20 6 27 13 8 6 21 18 29 25 13 11
12 18 -14 56 -29 43 -80 69 -80 41 0 -7 -7 -15 -15 -19 -11 -4 -15 2 -16 22
-1 17 -3 20 -6 10 -6 -23 -19 -23 -25 0 -4 13 2 17 21 18 71 3 81 26 42 97
-22 41 -27 64 -26 107 1 45 5 55 18 54 23 -2 21 13 -3 28 -13 8 -18 19 -14 34
3 12 -2 36 -11 54 -9 17 -18 56 -21 86 -2 29 -15 81 -29 116 -14 34 -25 63
-25 65 0 2 13 3 29 3 33 0 65 38 51 60 -5 8 -7 17 -4 22 7 11 -27 47 -60 65
-24 12 -30 13 -37 1 -7 -10 -9 -10 -9 0 0 6 -4 12 -10 12 -5 0 -7 -7 -4 -15 4
-10 0 -15 -15 -15 -12 0 -21 6 -21 15 0 16 -36 39 -43 28 -2 -5 -10 -31 -17
-60 -8 -29 -17 -50 -22 -47 -4 3 -8 0 -8 -7 0 -25 -23 9 -39 58 -14 42 -20 48
-54 56 -60 14 -69 6 -46 -42 10 -22 19 -52 19 -66 0 -22 -3 -25 -20 -20 -16 5
-20 2 -20 -14 0 -12 4 -21 9 -21 5 0 8 -10 7 -23 -2 -32 -34 -33 -42 -1 -4 16
-12 24 -23 21 -9 -2 -15 -9 -13 -15 1 -7 -2 -12 -8 -12 -5 0 -10 6 -10 13 0 7
-11 14 -25 15 -22 2 -24 -1 -18 -28 4 -25 3 -29 -10 -24 -10 3 -17 -2 -21 -14
-4 -11 -16 -22 -26 -25 -11 -3 -20 -13 -20 -22 0 -9 -4 -14 -9 -11 -10 7 -65
-34 -57 -41 8 -9 -14 -44 -23 -38 -5 3 -11 -2 -15 -10 -3 -8 -12 -15 -21 -15
-8 0 -15 -5 -15 -12 0 -6 -6 -3 -14 8 -18 23 -27 15 -32 -27 -6 -53 -14 -46
-15 14 -1 31 -2 60 -3 65 -1 4 -6 22 -10 39 -4 18 -11 33 -14 33 -4 0 -19 10
-33 23 -30 27 -65 47 -80 47 -6 0 -45 16 -86 35 -41 19 -77 35 -81 35 -14 0
-40 33 -35 46 3 8 1 14 -5 14 -12 0 -22 37 -15 57 4 10 14 13 30 10 22 -4 19
2 -24 46 -26 28 -51 54 -56 57 -4 4 -9 30 -11 59 -2 28 -6 55 -9 58 -4 3 -2
14 4 24 7 13 21 19 45 19 23 0 33 4 28 11 -3 6 -17 9 -30 6 -27 -5 -31 11 -11
45 27 48 46 59 89 54 22 -3 50 0 62 7 11 6 25 10 29 9 4 -1 14 4 22 11 15 15
12 141 -3 161 -5 6 -10 72 -10 146 0 74 -4 170 -8 213 -6 70 -5 79 12 92 17
12 18 14 2 20 -10 4 -14 13 -11 22 4 9 1 13 -8 11 -8 -2 -14 2 -14 7 0 6 3 9
8 8 4 -2 7 2 7 8 0 5 4 7 10 4 6 -3 7 1 4 9 -3 9 -10 16 -15 16 -5 0 -7 12 -4
27 3 16 7 37 9 48 2 11 9 55 16 97 10 61 10 81 1 92 -10 12 -9 18 7 32 17 14
18 22 9 58 -5 22 -9 49 -9 59 1 13 -8 17 -39 17 -36 0 -39 2 -30 19 6 10 7 22
3 25 -4 4 1 12 10 17 11 6 15 16 11 27 -3 9 -3 14 2 10 9 -9 35 9 35 23 0 5
-11 14 -24 19 -31 11 -46 78 -21 93 15 8 14 11 -6 33 -20 21 -21 26 -9 34 11
7 12 10 2 10 -7 0 -10 5 -6 11 9 15 5 149 -8 267 -1 6 -10 12 -20 12 -34 0
-47 86 -20 136 6 11 9 39 6 61 -3 22 2 59 9 82 10 28 12 55 7 88 -16 95 -19
143 -11 143 5 0 7 9 4 20 -3 12 0 20 7 20 9 0 10 3 2 13 -9 10 -8 19 3 34 8
11 12 23 8 26 -3 3 -2 14 2 24 13 30 16 45 26 118 12 99 14 106 28 115 10 6
10 12 -3 32 -11 17 -13 32 -7 54 4 16 6 35 4 42 -3 7 1 11 8 10 26 -6 38 43
33 133 -4 72 -3 87 10 92 12 5 16 0 17 -21 1 -21 3 -18 9 13 5 25 4 45 -3 53
-11 14 -15 31 -22 100 -3 27 -1 41 5 37 6 -3 10 -1 10 4 0 6 -7 11 -15 11 -8
0 -15 3 -16 8 0 4 -3 19 -5 34 -3 19 2 34 16 48 11 11 20 32 20 46 0 14 4 23
9 19 18 -10 23 16 7 34 -9 10 -16 31 -16 48 0 16 -3 33 -7 36 -4 4 -6 31 -4
61 2 44 -2 58 -23 83 -33 39 -33 50 0 28 15 -9 23 -12 20 -6 -12 19 4 53 21
47 12 -5 14 0 11 23 -2 17 -2 30 1 29 21 -2 30 4 24 18 -4 10 1 17 15 21 11 3
24 12 27 21 10 24 28 339 21 365 -3 12 -46 72 -95 132 -49 61 -87 113 -84 118
2 4 13 7 25 7 11 0 22 8 25 20 3 11 13 20 23 20 10 0 20 6 23 13 3 9 9 7 24
-5 23 -21 73 -24 92 -5 11 10 12 4 7 -35 -5 -32 -4 -48 3 -48 6 0 11 10 11 23
0 18 2 19 10 7 7 -11 10 -4 10 27 0 38 2 41 23 36 12 -3 27 -12 34 -20 6 -8
19 -16 28 -17 9 -1 20 -8 24 -15 6 -9 16 -6 38 13 38 32 73 35 73 6 0 -11 6
-20 13 -20 7 0 20 -19 28 -42 14 -38 20 -43 80 -64 118 -42 158 -33 200 47 18
33 36 59 40 59 11 0 12 3 -6 -57 -18 -61 -9 -91 43 -137 23 -20 31 -34 26 -48
-9 -29 22 -48 57 -34 58 21 115 -59 73 -105 -9 -10 -25 -19 -36 -19 -14 0 -18
-8 -18 -34 0 -18 7 -39 15 -46 17 -14 20 -46 5 -55 -5 -3 -14 -24 -20 -46 -11
-40 -11 -41 38 -93 l50 -53 6 -94 c7 -126 16 -508 16 -748 l0 -194 21 19 c20
18 20 18 14 -8 -4 -14 -2 -35 4 -46 8 -15 7 -23 -3 -31 -7 -6 -16 -8 -19 -4
-4 3 -9 0 -11 -8 -3 -8 -7 -574 -10 -1259 -2 -685 -5 -1245 -5 -1245 -1 0 -32
-32 -70 -71 -43 -45 -68 -78 -67 -91 1 -25 87 -123 108 -123 28 0 148 -143
148 -177 0 -8 -14 -28 -31 -44 -38 -36 -37 -72 3 -77 23 -3 27 1 33 30 4 18
14 44 23 58 15 23 16 23 23 5 4 -11 8 -37 8 -57 1 -21 5 -38 9 -38 5 0 17 -8
28 -19 30 -27 114 -49 141 -36 13 5 23 16 23 23 0 7 5 10 10 7 6 -4 9 -14 8
-23 -3 -19 23 -21 122 -8 30 4 63 7 73 7 9 0 15 4 12 10 -8 12 6 11 25 -1 11
-7 17 -5 22 8 6 15 12 -30 11 -75 -1 -17 35 -27 51 -14 7 6 16 8 19 4 4 -3 16
6 28 21 l21 26 19 -22 c11 -13 19 -18 18 -13 -1 6 3 21 9 35 6 14 11 18 12 10
0 -13 2 -13 9 -1 5 8 7 20 4 28 -3 7 -1 13 4 13 6 0 15 10 21 23 l11 22 0 -23
c1 -13 5 -21 10 -18 4 3 6 -6 3 -21 -3 -18 -1 -24 7 -19 6 4 11 2 11 -3 0 -6
9 -11 20 -11 11 0 20 7 20 15 0 8 12 18 27 21 15 4 35 16 44 27 11 15 21 18
35 12 32 -14 42 -14 48 1 3 8 12 11 22 7 12 -4 15 -3 10 5 -5 8 -1 10 10 5 14
-5 16 -2 12 20 -3 15 -1 24 3 21 5 -3 9 -17 9 -32 0 -24 1 -25 13 -7 13 17 43
13 32 -5 -8 -13 5 -37 20 -37 16 0 30 31 20 47 -3 5 -2 10 4 10 5 0 13 -9 16
-20 3 -11 13 -20 21 -20 8 0 12 -4 9 -10 -3 -5 3 -10 15 -10 12 0 18 4 15 10
-3 6 1 7 9 4 9 -3 13 -10 10 -15 -3 -5 7 -9 21 -9 26 0 27 2 21 42 -4 31 -3
37 3 23 5 -11 10 -30 10 -43 1 -15 10 -26 27 -32 32 -13 37 -12 29 0 -3 6 -2
10 3 10 6 0 13 -7 16 -16 3 -8 2 -12 -4 -9 -6 3 -10 1 -10 -4 0 -6 6 -11 13
-11 6 0 23 -3 37 -6 l25 -5 -25 16 -25 16 25 -8 c14 -4 53 -7 87 -6 52 2 61 0
56 -13 -4 -12 0 -14 23 -9 22 5 25 4 14 -4 -13 -9 -12 -11 5 -11 11 0 27 -5
35 -10 11 -7 3 -8 -27 -4 -40 6 -42 5 -36 -17 9 -32 25 -47 57 -53 18 -3 26 0
26 10 0 8 5 14 11 14 7 0 10 -12 7 -29 -3 -20 0 -27 8 -24 7 2 15 0 19 -6 3
-6 15 -11 26 -11 11 0 17 -5 14 -10 -22 -35 76 -46 158 -17 26 9 53 17 59 17
6 0 37 14 70 30 32 17 64 30 70 30 15 0 137 63 203 106 29 18 59 35 66 36 8 2
20 9 27 16 8 7 17 10 22 7 4 -3 11 5 15 18 3 12 9 17 11 10 7 -15 34 -5 34 12
0 7 9 23 20 36 16 19 19 20 13 5 -4 -13 -3 -17 5 -12 7 4 12 13 12 20 0 8 8
20 18 27 15 13 16 12 3 -3 -20 -26 2 -22 25 4 10 12 13 18 7 14 -7 -4 -13 -3
-13 2 0 16 33 24 42 10 6 -8 7 -2 3 17 -3 17 2 64 11 105 14 66 16 207 19
1170 3 1078 -3 1618 -24 2160 -6 151 -12 356 -13 455 -3 166 -2 180 15 180 9
0 24 13 32 29 15 29 12 46 -8 46 -26 0 -67 47 -66 76 0 24 2 26 8 9 5 -13 10
5 14 55 3 41 8 84 12 95 7 20 6 20 -9 1 -24 -30 -19 -6 9 39 19 31 24 54 25
104 0 35 2 62 4 60 3 -3 9 -56 15 -118 9 -113 22 -151 41 -121 6 10 4 17 -5
23 -16 9 -18 55 -5 97 7 21 8 22 9 5 1 -12 6 -26 12 -32 5 -5 11 -23 13 -39 3
-23 9 -30 32 -34 26 -5 29 -9 28 -43 -1 -29 1 -35 12 -27 21 19 92 114 96 130
2 8 10 20 18 27 48 35 172 254 130 228 -6 -3 -10 3 -10 14 0 23 25 29 33 9 3
-7 6 -3 6 10 1 15 -5 22 -18 22 -10 0 -25 7 -32 17 -15 18 -94 56 -121 58 -25
2 -28 8 -13 22 11 10 17 10 29 -2 11 -12 21 -13 42 -5 19 8 29 8 34 0 4 -6 24
-9 48 -6 25 4 51 0 69 -9 15 -8 33 -15 39 -15 14 0 39 36 109 155 89 154 95
158 137 94 20 -31 28 -59 33 -117 3 -42 10 -111 15 -152 5 -41 12 -105 15
-142 4 -38 11 -68 16 -68 5 0 9 8 9 18 0 14 2 15 10 2 7 -11 10 -7 10 18 0 17
5 32 11 32 7 0 9 -10 5 -26 -4 -14 -4 -35 0 -47 6 -20 7 -20 20 -3 17 24 44
14 44 -16 2 -74 7 -102 18 -106 14 -4 16 -32 2 -32 -5 0 -10 -5 -10 -11 0 -5
4 -8 9 -5 5 3 15 -2 22 -11 8 -9 9 -14 4 -11 -6 4 -17 3 -24 -1 -10 -7 -10
-17 0 -52 23 -79 19 -142 -12 -201 -5 -10 -9 -25 -9 -33 0 -9 -4 -13 -10 -10
-5 3 -10 -1 -10 -9 0 -9 3 -15 8 -15 22 4 27 -7 28 -63 3 -111 10 -203 18
-220 4 -9 3 -25 -2 -35 -8 -13 -5 -27 11 -55 24 -41 37 -48 37 -20 1 16 2 16
15 -1 9 -12 11 -27 6 -40 -5 -12 -4 -37 1 -56 7 -25 6 -36 -4 -42 -11 -7 -11
-12 0 -30 10 -16 11 -24 2 -29 -6 -4 -13 -42 -16 -85 -2 -43 -8 -83 -11 -89
-4 -5 -8 -34 -9 -62 -1 -29 -6 -81 -13 -115 -6 -35 -13 -109 -15 -164 -4 -100
-6 -114 -21 -148 -4 -10 -5 -21 -1 -24 3 -4 6 -1 6 6 0 9 4 8 14 -2 21 -20 27
-183 7 -179 -11 2 -12 -6 -7 -39 4 -23 9 -46 12 -51 9 -14 24 -9 24 10 0 10 7
27 15 38 14 19 14 19 15 -2 0 -11 9 -40 21 -63 13 -27 18 -52 14 -68 -7 -31 2
-63 20 -63 7 0 15 -10 19 -22 12 -48 9 -51 -46 -45 -49 6 -51 5 -33 -9 17 -13
18 -16 5 -24 -12 -8 -13 -13 -3 -29 9 -14 9 -21 1 -23 -6 -2 1 -12 16 -21 14
-10 25 -14 24 -10 -2 4 0 9 5 11 4 1 7 0 7 -3 0 -3 0 -15 0 -26 0 -18 -3 -19
-15 -9 -23 19 -30 -14 -11 -54 19 -41 20 -50 3 -43 -18 7 -47 -12 -29 -20 14
-6 17 -83 2 -83 -15 0 -12 -36 5 -50 8 -7 15 -20 15 -29 0 -9 7 -26 15 -38 11
-16 12 -22 3 -25 -8 -3 -7 -11 4 -27 12 -17 14 -30 8 -46 -5 -13 -6 -26 -2
-30 4 -4 0 -6 -8 -3 -9 3 -19 25 -24 56 -11 59 -25 69 -23 17 1 -19 4 -35 9
-35 4 0 3 -10 -2 -22 -5 -13 -12 -41 -15 -62 -5 -29 -9 -36 -16 -25 -7 11 -9
9 -9 -8 0 -14 6 -23 16 -23 11 0 14 -6 9 -20 -10 -33 4 -60 31 -60 13 0 24 -5
24 -11 0 -20 -21 -50 -31 -44 -5 4 -7 10 -4 15 3 5 1 11 -5 15 -5 3 -10 1 -10
-4 0 -6 -7 -11 -16 -11 -14 0 -14 -1 0 -16 9 -8 16 -22 16 -30 0 -8 5 -23 12
-34 9 -13 9 -27 2 -47 -7 -20 -6 -43 3 -78 7 -27 11 -56 8 -63 -3 -7 -1 -11 4
-8 4 3 8 -17 8 -44 1 -28 -3 -53 -9 -56 -5 -3 -6 -19 -3 -35 5 -22 3 -29 -9
-29 -9 0 -16 -5 -16 -11 0 -5 3 -8 8 -6 9 6 13 -213 4 -227 -8 -13 -12 -41
-12 -83 0 -18 -4 -32 -8 -32 -30 5 -33 -2 -27 -54 5 -42 3 -57 -9 -70 -9 -8
-16 -20 -16 -25 0 -6 -5 -12 -10 -14 -6 -2 -12 -13 -15 -26 -2 -12 0 -20 5
-17 9 5 23 -87 17 -116 -1 -10 -9 -24 -16 -33 -7 -8 -10 -24 -6 -35 3 -11 1
-39 -5 -61 -6 -23 -12 -68 -12 -101 -1 -54 -6 -64 -30 -60 -5 0 -8 -6 -8 -14
0 -8 4 -15 8 -15 13 0 13 -61 0 -78 -11 -13 -10 -14 2 -10 8 2 16 14 18 26 6
38 20 24 24 -23 3 -43 2 -45 -24 -45 -16 0 -28 -5 -28 -10 0 -6 15 -9 33 -8
l32 3 0 -52 c1 -28 -2 -50 -6 -47 -4 2 -10 -8 -12 -23 -3 -16 -4 1 -4 36 1 69
-11 87 -30 46 -6 -14 -8 -23 -4 -21 4 3 7 -54 7 -125 0 -97 3 -132 13 -138 19
-12 26 -97 11 -126 -7 -13 -17 -22 -22 -19 -4 3 -8 -1 -8 -8 0 -7 -6 -4 -12 7
-7 11 -14 72 -17 135 l-6 115 -5 -108 -5 -107 -35 44 c-36 47 -63 58 -74 30
-3 -9 -6 -89 -6 -178 0 -177 -4 -193 -60 -216 l-30 -12 24 -29 c35 -41 41 -67
21 -89 -16 -18 -16 -20 5 -37 26 -22 62 -99 62 -133 0 -14 5 -31 11 -39 7 -7
12 -19 13 -25 4 -36 4 -37 23 -26 11 5 30 10 43 10 28 0 40 8 212 140 76 58
152 115 169 128 18 13 55 45 82 72 28 27 75 66 106 87 77 51 265 252 436 463
36 45 124 168 135 190 7 14 18 32 25 41 27 33 146 248 218 394 128 260 179
422 264 840 48 238 70 555 65 940 -6 427 -24 606 -91 895 -19 85 -41 180 -48
210 -12 53 -83 277 -130 410 -34 95 -130 307 -169 370 -19 30 -47 83 -64 116
-58 115 -167 271 -322 462 -97 120 -91 119 -211 36 -128 -88 -274 -190 -332
-231 -48 -34 -87 -43 -87 -19 0 7 -7 19 -15 26 -26 21 -96 180 -102 230 -5 43
-3 51 13 57 11 3 35 19 54 33 151 114 190 141 199 136 5 -4 12 -19 16 -35 12
-55 29 -58 84 -12 27 23 58 57 70 76 l20 34 -35 43 c-19 24 -53 59 -76 80
l-41 36 -48 -51 c-26 -29 -50 -49 -54 -45 -4 4 7 37 24 74 l32 68 -38 39 c-46
47 -229 177 -338 239 -148 84 -145 81 -145 109 0 35 -16 47 -150 114 -174 88
-606 265 -690 284 -23 5 -52 19 -64 30 -12 12 -33 21 -47 21 -36 0 -54 16 -54
47 0 21 -5 29 -22 31 -26 4 -31 -13 -8 -22 8 -3 15 -11 15 -17 0 -8 -14 -9
-47 -4 -72 11 -93 21 -88 45 6 29 -5 52 -21 46 -17 -7 -44 3 -44 16 0 10 25
38 33 38 3 0 7 -10 10 -22 5 -18 8 -19 22 -8 12 10 24 11 53 2 97 -29 113 -24
82 23 -19 29 -19 29 5 51 13 12 35 24 49 28 32 8 34 37 6 73 -26 33 -25 42 4
53 24 9 46 4 126 -26 19 -7 49 -15 65 -16 24 -2 31 -8 33 -30 4 -30 28 -38 49
-17 9 9 23 6 55 -10 25 -11 56 -21 70 -21 14 0 31 -7 38 -15 7 -8 18 -15 24
-15 6 0 33 -12 60 -26 27 -14 76 -35 110 -46 82 -26 140 -54 161 -78 10 -11
22 -20 26 -20 15 0 124 -52 141 -67 22 -19 49 -13 59 13 6 17 -2 32 -35 70
-23 27 -53 69 -67 94 -21 39 -25 59 -20 114 1 4 7 6 15 3 8 -3 19 5 26 18 7
13 23 25 36 28 47 9 21 -44 -33 -68 -1 0 5 -21 13 -45 19 -55 55 -120 66 -120
4 0 8 -8 8 -18 0 -21 52 -74 95 -95 17 -8 51 -17 77 -21 26 -4 62 -17 80 -29
18 -12 53 -31 76 -42 l44 -19 44 47 c24 26 49 47 56 47 9 0 9 -3 0 -12 -15
-15 -16 -58 -2 -58 6 0 10 5 10 10 0 6 7 10 16 10 8 0 13 4 9 10 -3 5 7 16 22
24 26 14 27 15 6 16 -18 0 -23 6 -23 25 0 22 4 25 36 25 39 0 124 51 124 75 0
8 -14 24 -30 37 -17 12 -30 27 -30 33 0 22 35 50 58 47 12 -2 22 2 22 8 0 9
11 10 38 5 20 -4 43 -8 50 -8 6 0 12 -11 12 -23 0 -16 -7 -24 -22 -26 -13 -2
-22 -7 -20 -13 2 -5 13 -9 24 -7 20 2 87 -52 88 -71 0 -4 -11 -12 -25 -17 -15
-6 -25 -17 -25 -29 0 -11 -10 -37 -21 -58 -26 -45 -140 -183 -152 -183 -5 0
-6 -9 -2 -19 6 -19 -37 -102 -57 -109 -4 -2 1 -16 12 -32 26 -37 25 -48 -5
-62 -29 -13 -34 -48 -10 -68 12 -10 21 -10 41 -1 28 12 58 2 68 -24 3 -8 12
-15 20 -15 8 0 16 -3 18 -7 2 -5 15 -19 30 -32 23 -20 30 -22 43 -11 18 15 20
47 3 52 -8 3 -5 11 8 24 11 11 23 27 26 36 9 21 70 31 102 17 21 -10 23 -15
15 -31 -13 -24 -2 -98 14 -98 8 0 11 16 8 46 -2 36 0 45 10 42 9 -3 13 -18 12
-42 -2 -23 2 -36 10 -36 7 0 35 -18 62 -40 28 -22 54 -40 58 -40 4 0 43 35 86
78 44 42 126 119 182 170 57 52 120 109 139 127 37 35 108 85 120 85 12 0 -1
-84 -15 -95 -7 -5 -23 -17 -35 -25 -12 -8 -30 -36 -41 -61 -22 -50 -45 -67
-97 -73 -35 -4 -72 -31 -72 -53 0 -7 10 -18 23 -24 25 -11 49 -62 41 -84 -3
-7 6 -21 19 -30 16 -10 23 -22 20 -34 -3 -10 -47 -60 -99 -111 -56 -55 -94
-100 -94 -112 0 -11 19 -45 43 -76 100 -132 165 -242 181 -306 4 -16 18 -37
31 -48 26 -20 50 -86 60 -161 6 -50 -6 -87 -30 -87 -15 0 -43 -76 -31 -87 3
-4 42 -7 86 -8 91 -3 110 -13 110 -60 0 -34 -38 -85 -62 -85 -8 0 -32 -18 -53
-41 -44 -45 -88 -72 -100 -61 -5 4 -5 1 -1 -5 7 -13 56 -14 56 -2 0 4 14 9 30
11 44 7 55 -13 55 -103 0 -43 3 -80 6 -83 3 -3 23 -8 44 -12 41 -6 132 -79
168 -134 24 -38 74 -271 62 -290 -3 -4 -6 -48 -9 -97 -4 -97 -10 -115 -50
-152 -40 -38 -33 -84 22 -143 30 -32 31 -70 11 -221 -10 -80 -11 -109 0 -160
7 -34 16 -64 19 -67 18 -14 21 -95 5 -129 -14 -28 -14 -33 0 -49 29 -32 47
-90 47 -151 0 -32 10 -90 21 -127 19 -61 20 -76 10 -125 -17 -86 -14 -146 9
-171 24 -26 26 -66 5 -74 -22 -9 -18 -38 7 -49 46 -20 51 -120 6 -113 -16 2
-30 -10 -56 -47 -19 -27 -41 -53 -48 -58 -7 -4 -16 -22 -19 -40 -4 -17 -15
-45 -23 -62 -9 -16 -17 -56 -18 -88 -1 -32 -7 -70 -12 -85 -6 -15 -18 -75 -26
-134 -13 -89 -24 -125 -62 -205 -26 -54 -53 -102 -60 -108 -13 -10 -17 -31
-15 -77 1 -21 7 -29 26 -34 14 -3 25 -10 25 -15 0 -4 11 -20 25 -35 14 -15 25
-35 25 -44 0 -25 27 -33 33 -9 6 24 29 33 62 25 21 -5 25 -12 25 -44 0 -39
-25 -86 -40 -77 -20 12 -19 -16 1 -32 36 -31 39 -54 11 -103 -14 -25 -41 -58
-59 -73 -18 -16 -33 -35 -33 -42 0 -7 -7 -21 -16 -30 -14 -13 -19 -14 -25 -4
-6 10 -10 9 -15 -6 -4 -11 -13 -34 -19 -51 -7 -18 -9 -37 -5 -45 5 -7 6 -17 4
-21 -3 -4 6 -12 20 -17 22 -9 24 -14 19 -53 -7 -49 -55 -115 -90 -124 -24 -7
-45 -59 -36 -92 5 -21 -20 -52 -42 -52 -7 0 -18 -14 -24 -30 -5 -17 -17 -33
-26 -36 -8 -3 -15 -13 -15 -21 0 -8 -7 -13 -17 -11 -13 2 -18 12 -16 36 1 19
-2 30 -8 26 -6 -3 -8 -12 -5 -19 3 -8 -1 -18 -7 -23 -15 -11 -90 -7 -116 7
-44 24 -104 2 -120 -43 -9 -23 -3 -35 62 -124 26 -36 36 -59 32 -70 -4 -9 -9
-40 -11 -69 -3 -52 -3 -53 49 -96 103 -86 143 -110 165 -98 26 14 182 207 182
226 0 22 188 205 211 205 11 0 38 -9 59 -20 52 -27 60 -57 27 -112 -59 -103
-97 -177 -97 -191 0 -9 23 -28 53 -42 28 -15 59 -33 67 -40 14 -13 98 -62 189
-111 24 -13 54 -24 67 -24 34 0 77 43 92 90 20 66 68 164 98 199 24 29 28 30
43 17 15 -14 19 -14 39 0 12 8 20 19 18 23 -3 4 3 17 14 29 17 18 24 19 58 10
25 -6 44 -19 52 -34 8 -13 19 -24 26 -24 7 0 26 -12 43 -27 16 -16 42 -39 56
-52 17 -15 25 -30 22 -42 -3 -11 -2 -19 1 -19 4 0 8 -20 10 -46 2 -35 -3 -52
-22 -77 -13 -18 -33 -51 -45 -75 -12 -24 -42 -69 -66 -100 -24 -31 -48 -75
-54 -96 -5 -21 -19 -48 -30 -60 -30 -32 -32 -68 -8 -108 40 -65 61 -93 98
-125 39 -35 88 -127 95 -176 3 -25 -4 -37 -41 -73 -26 -24 -45 -52 -45 -64 0
-19 -5 -21 -35 -18 -23 1 -40 -3 -46 -12 -9 -12 -10 -12 -5 3 7 21 -12 23 -20
2 -4 -8 -10 -12 -15 -9 -5 3 -9 -2 -9 -10 0 -9 -4 -16 -10 -16 -5 0 -10 5 -10
10 0 6 -9 10 -20 10 -12 0 -33 12 -48 26 -41 40 -140 83 -207 90 -33 3 -75 15
-93 25 -18 11 -36 19 -40 19 -4 0 -27 -18 -50 -41 -53 -48 -59 -47 -165 32
-43 33 -81 59 -86 59 -5 0 -26 18 -47 41 -22 23 -82 73 -134 112 -52 39 -129
102 -170 142 -41 39 -98 91 -126 116 -27 24 -90 87 -138 140 -57 63 -97 99
-114 102 -15 3 -39 9 -54 12 -21 6 -46 -3 -112 -39 -47 -26 -88 -51 -91 -56
-13 -21 -91 -53 -123 -51 -26 1 -34 -3 -44 -23 -6 -14 -19 -28 -30 -31 -20 -7
-21 -11 -22 -75 l-1 -45 -71 -35 c-40 -19 -79 -41 -88 -49 -14 -12 -21 -11
-50 4 l-34 18 -69 -41 c-38 -23 -74 -42 -80 -42 -5 0 -18 -9 -28 -20 -10 -11
-22 -20 -27 -20 -5 0 -29 -14 -54 -31 -25 -17 -86 -49 -137 -71 -51 -23 -108
-51 -127 -63 -19 -12 -51 -27 -70 -35 -96 -37 -139 -60 -145 -80 -5 -15 8 -52
43 -123 28 -56 53 -117 57 -136 8 -38 37 -107 100 -236 62 -125 98 -232 97
-284 0 -30 3 -40 9 -30 12 19 12 -3 -1 -35 -5 -14 -16 -26 -25 -26 -8 0 -15
-6 -15 -12 0 -8 -3 -9 -8 -3 -13 18 -31 15 -37 -5 -4 -13 -15 -20 -31 -20 -13
0 -24 -4 -24 -8 0 -12 -61 -14 -74 -3 -26 22 -93 29 -125 13 -17 -8 -31 -18
-31 -23 0 -5 -8 -9 -18 -9 -11 0 -31 20 -50 49 -53 81 -89 94 -205 76 -61 -10
-75 2 -118 105 -34 84 -58 106 -106 97 -15 -3 -71 -12 -123 -21 -52 -9 -133
-23 -180 -32 -47 -8 -168 -22 -270 -30 -102 -8 -205 -17 -230 -20 -49 -7 -80
-27 -80 -54 0 -9 -4 -20 -9 -26 -31 -31 -53 -93 -52 -139 2 -91 -40 -245 -59
-214 -7 11 -12 6 -21 -19 -10 -30 -20 -37 -44 -32 -5 1 -7 -2 -3 -5 4 -4 1
-20 -8 -36 l-15 -29 2421 0 2420 0 0 5120 0 5120 -5120 0 -5120 0 0 -1717z
m3132 917 c9 -19 20 -48 24 -63 6 -24 4 -28 -12 -26 -11 2 -25 0 -32 -5 -11
-6 -11 -11 2 -25 8 -9 24 -26 36 -38 26 -30 26 -59 -1 -66 -21 -6 -21 -6 -3
-36 10 -17 26 -31 36 -31 10 0 18 -4 18 -10 0 -5 7 -10 15 -10 8 0 22 -12 31
-26 15 -22 23 -25 58 -22 35 3 41 0 44 -18 2 -14 -8 -30 -28 -48 -34 -28 -59
-33 -78 -14 -9 9 -18 9 -37 0 -14 -7 -28 -12 -30 -12 -6 0 -29 74 -27 87 2 8
-3 10 -13 7 -9 -4 -17 1 -21 12 -3 11 -10 27 -15 36 -15 29 -10 57 11 68 11 6
20 17 20 25 0 8 -9 20 -20 27 -11 7 -20 18 -20 25 0 15 -50 68 -72 76 -24 8
-23 34 1 42 11 3 23 16 27 28 9 30 36 57 54 54 8 -1 23 -18 32 -37z m1610 3
c9 -8 14 -21 12 -28 -4 -10 28 -40 85 -82 2 -1 -2 -9 -9 -18 -8 -9 -10 -26 -5
-47 11 -53 9 -98 -5 -111 -8 -8 -14 -8 -16 -2 -3 6 -20 9 -39 7 -37 -4 -59
-29 -49 -56 9 -23 -48 -42 -178 -61 -62 -9 -152 -26 -201 -37 -93 -21 -92 -22
-140 25 -24 24 -19 68 11 83 35 17 37 22 16 45 -18 20 -18 21 0 34 10 7 16 22
14 32 -4 24 -50 29 -68 8 -11 -13 -10 -19 9 -36 l21 -20 -20 -29 c-11 -16 -28
-31 -38 -34 -9 -3 -22 -17 -29 -31 -10 -22 -9 -25 8 -25 23 0 26 -32 4 -54 -9
-8 -16 -18 -15 -21 0 -3 0 -9 0 -15 0 -10 -59 -37 -127 -59 -37 -12 -44 -12
-58 3 -21 20 -44 21 -52 1 -6 -17 -70 -48 -83 -40 -5 3 -27 -14 -50 -37 -44
-46 -94 -78 -205 -131 -60 -30 -140 -72 -324 -173 -19 -11 -61 -38 -93 -60
-50 -35 -55 -42 -38 -47 11 -3 27 1 35 9 8 8 16 10 20 5 5 -9 -37 -47 -170
-151 -32 -25 -68 -54 -82 -65 l-24 -20 -27 33 c-37 44 -55 41 -83 -14 -39 -76
-42 -80 -60 -90 -77 -40 -250 -201 -349 -324 -101 -127 -299 -331 -350 -363
-44 -27 -133 -29 -172 -3 -19 12 -37 16 -57 11 -26 -6 -29 -4 -24 14 3 12 11
21 19 21 23 0 64 46 64 72 0 28 -30 68 -50 68 -8 0 -22 7 -31 16 -22 20 -15
36 36 87 25 25 35 44 35 67 0 37 11 61 56 117 19 23 34 48 34 55 0 8 12 25 26
39 15 13 37 41 51 63 14 21 34 41 44 43 11 3 29 23 39 44 11 21 36 50 55 65
27 20 35 33 33 53 -2 20 2 27 19 29 12 2 42 23 67 47 53 51 77 61 106 45 26
-14 42 -3 17 11 -9 6 -17 16 -17 22 0 15 40 51 48 43 3 -3 15 0 26 7 12 8 33
17 49 21 15 3 27 13 27 21 0 18 39 59 59 62 8 1 17 7 21 14 5 8 19 10 39 6 19
-4 30 -3 26 2 -3 5 0 13 7 17 7 4 10 4 6 -1 -5 -5 1 -15 13 -23 11 -8 22 -12
23 -11 39 49 54 84 45 106 -8 21 -7 24 6 19 8 -3 15 -1 15 3 0 5 14 14 30 20
43 14 91 -8 110 -51 l15 -33 5 50 c9 78 35 123 76 131 36 7 41 13 22 32 -9 9
-9 12 0 12 7 0 12 -5 12 -11 0 -5 5 -7 10 -4 6 4 23 -7 37 -24 15 -17 35 -31
45 -31 10 0 18 -7 18 -15 0 -9 12 -20 27 -26 24 -9 31 -7 49 15 12 13 25 22
28 19 7 -7 9 10 6 44 -2 29 17 63 35 63 7 0 17 9 20 21 6 18 12 20 48 14 23
-4 49 -8 58 -11 9 -2 21 6 29 21 14 27 33 35 24 10 -7 -18 11 -20 22 -3 4 6 0
16 -9 23 -23 17 -21 52 4 65 17 9 25 8 41 -7 20 -18 20 -17 18 7 -4 48 -1 52
30 48 18 -3 31 0 34 9 3 8 22 13 46 13 28 0 40 4 40 14 0 20 -17 29 -52 28
-25 -1 -28 2 -22 21 3 12 16 33 29 47 43 48 17 120 -43 120 -25 0 -32 6 -41
31 -7 20 -7 37 -1 48 5 9 10 13 10 9 0 -4 11 -3 24 2 18 7 28 4 44 -11 12 -10
32 -19 45 -19 16 0 28 -9 37 -27 7 -16 13 -31 12 -35 -1 -5 4 -8 12 -8 8 0 16
-4 18 -10 2 -5 32 -12 67 -15 35 -3 67 -7 69 -10 3 -3 13 2 23 11 23 21 62 14
74 -14 12 -28 36 -25 52 8 13 27 71 44 95 29 8 -5 22 1 39 16 34 34 127 57
224 56 115 -2 114 -1 136 -37 12 -20 31 -35 49 -39 46 -10 52 2 24 45 -14 21
-24 45 -22 52 5 14 104 37 128 30 8 -3 23 -12 32 -19z m2730 -13 c24 -11 62
-24 84 -30 28 -7 43 -17 47 -30 4 -14 14 -20 34 -20 61 0 112 -165 77 -249
-22 -53 -52 -80 -108 -96 -64 -19 -106 -19 -158 2 -102 39 -130 85 -130 209
-1 72 10 96 68 150 41 38 47 54 18 54 -6 0 -14 -9 -17 -20 -6 -22 -37 -28 -37
-7 0 25 31 57 55 57 14 0 44 -9 67 -20z m-167 -50 c-14 -15 -21 -17 -31 -9
-19 16 -8 29 23 29 25 0 26 0 8 -20z m-2275 -69 c0 -31 22 -61 45 -61 21 0 28
-50 10 -69 -8 -10 -15 -25 -15 -34 0 -9 -14 -24 -32 -33 -29 -15 -34 -15 -58
0 -15 8 -30 13 -34 9 -3 -3 -6 1 -6 9 0 9 6 18 14 21 8 3 16 26 20 54 14 119
17 133 37 133 14 0 19 -7 19 -29z m80 -26 c0 -26 -14 -33 -25 -15 -9 14 1 40
15 40 5 0 10 -11 10 -25z m-1500 -34 c0 -6 -4 -13 -10 -16 -5 -3 -10 1 -10 9
0 9 5 16 10 16 6 0 10 -4 10 -9z m2171 -62 c8 -12 10 -12 18 0 14 21 136 -4
156 -32 30 -42 8 -77 -47 -77 -56 0 -78 10 -75 33 2 16 -11 27 -55 50 -32 15
-58 33 -58 38 0 15 50 5 61 -12z m-974 -91 c-7 -4 -22 -8 -35 -8 l-23 0 23 23
c20 21 24 22 35 8 9 -12 9 -18 0 -23z m1248 -28 c3 -5 -1 -10 -9 -10 -9 0 -16
5 -16 10 0 6 4 10 9 10 6 0 13 -4 16 -10z m-2825 -235 c0 -8 -4 -15 -9 -15
-13 0 -22 16 -14 24 11 11 23 6 23 -9z m655 -171 c15 -20 23 -39 19 -44 -5 -5
-21 12 -36 36 -33 53 -21 58 17 8z m-1200 6 c-3 -5 -11 -10 -16 -10 -6 0 -7 5
-4 10 3 6 11 10 16 10 6 0 7 -4 4 -10z m5310 -50 c0 -13 -6 -25 -12 -27 -16
-6 -27 21 -19 43 9 23 31 11 31 -16z m90 10 c15 -16 15 -20 3 -20 -8 0 -23 9
-33 20 -15 16 -15 20 -3 20 8 0 23 -9 33 -20z m-4122 -43 c-2 -4 -3 -11 -3
-15 0 -12 -42 -30 -57 -25 -21 7 -15 33 10 42 24 9 53 8 50 -2z m4164 -15 c15
-20 18 -33 12 -50 l-9 -23 -22 21 c-24 22 -32 80 -12 80 5 0 19 -12 31 -28z
m-5711 -39 c-10 -11 -25 18 -18 35 4 13 8 11 15 -6 6 -12 7 -25 3 -29z m6462
-129 c-2 -9 -13 -23 -25 -31 -21 -14 -23 -14 -30 2 -4 12 0 23 12 31 26 19 47
18 43 -2z m-2133 -475 c4 -6 5 -12 2 -15 -7 -7 -37 7 -37 17 0 13 27 11 35 -2z
m729 -127 c2 -4 -2 -15 -9 -25 -15 -20 -28 -8 -19 17 7 17 20 21 28 8z m-37
-64 c-3 -8 -6 -5 -6 6 -1 11 2 17 5 13 3 -3 4 -12 1 -19z m2364 -17 c24 -29
33 -64 25 -94 -4 -17 -19 -27 -60 -40 -30 -10 -57 -24 -60 -32 -3 -9 -18 -20
-32 -26 -21 -7 -24 -13 -16 -21 13 -13 16 -78 6 -115 -8 -29 -47 -30 -91 -3
-56 33 -68 63 -68 163 l0 89 45 38 c25 21 47 37 49 35 2 -2 13 5 25 16 18 18
31 20 90 17 57 -3 72 -8 87 -27z m90 -221 c15 0 10 -42 -8 -62 -22 -24 -49
-23 -68 5 -15 21 -14 23 11 45 15 13 33 21 41 18 8 -3 19 -6 24 -6z m-3414
-102 c-3 -8 -6 -5 -6 6 -1 11 2 17 5 13 3 -3 4 -12 1 -19z m-3740 -225 c-3
-10 -5 -2 -5 17 0 19 2 27 5 18 2 -10 2 -26 0 -35z m1096 -1388 c-3 -9 -8 -14
-10 -11 -3 3 -2 9 2 15 9 16 15 13 8 -4z m-3 -438 c0 -20 0 -20 -14 -2 -8 11
-12 23 -9 28 8 13 23 -3 23 -26z m3850 -7 c0 -11 -4 -20 -10 -20 -5 0 -10 9
-10 20 0 11 5 20 10 20 6 0 10 -9 10 -20z m-3770 -205 c11 -13 10 -14 -4 -9
-9 3 -16 10 -16 15 0 13 6 11 20 -6z m3710 -175 c0 -5 -2 -10 -4 -10 -3 0 -8
5 -11 10 -3 6 -1 10 4 10 6 0 11 -4 11 -10z m138 -346 c-3 -14 -5 -12 -10 9
-3 19 -2 25 4 19 6 -6 8 -18 6 -28z m-7158 -134 c0 -5 -9 -6 -20 -3 -11 3 -20
9 -20 13 0 5 9 6 20 3 11 -3 20 -9 20 -13z m-110 -90 c25 -22 40 -26 40 -10 0
11 30 13 54 4 9 -3 16 -12 16 -20 0 -8 4 -14 9 -14 5 0 11 -9 14 -20 3 -11 14
-20 25 -20 29 0 58 -31 54 -58 -2 -13 4 -35 13 -49 16 -24 16 -26 -6 -49 -12
-13 -33 -24 -45 -24 -12 0 -49 -6 -81 -14 -78 -20 -259 -28 -271 -12 -5 6 -9
22 -10 36 -1 14 -6 26 -11 28 -31 10 -53 39 -47 60 4 12 12 22 18 22 6 0 26
12 45 26 19 14 46 29 61 33 15 4 34 20 42 36 16 31 42 63 51 64 3 1 16 -8 29
-19z m7253 -97 c-7 -2 -21 -2 -30 0 -10 3 -4 5 12 5 17 0 24 -2 18 -5z m-6920
-244 c89 -45 114 -84 116 -184 1 -55 -3 -79 -21 -113 -26 -51 -68 -90 -106
-98 -15 -3 -36 -9 -47 -14 -12 -4 -45 -4 -75 1 -45 7 -61 15 -86 44 -38 43
-59 111 -50 162 17 103 39 144 109 194 49 35 100 38 160 8z m8605 -863 c3 -44
5 -48 25 -42 12 3 29 6 38 6 9 0 29 12 45 27 29 27 29 27 32 5 2 -12 13 -27
24 -33 25 -14 68 -58 68 -71 0 -5 15 -40 34 -78 26 -55 32 -77 27 -102 -9 -42
-51 -69 -81 -50 -11 6 -26 12 -34 12 -8 0 -27 6 -43 14 -63 32 -141 66 -152
66 -6 0 -55 21 -109 46 -53 25 -108 50 -121 55 l-23 9 27 26 c23 21 25 28 14
35 -10 6 -7 9 11 8 57 -2 135 42 157 89 12 24 21 32 37 30 18 -3 22 -11 24
-52z m-248 -56 c0 -5 -5 -10 -11 -10 -5 0 -7 5 -4 10 3 6 8 10 11 10 2 0 4 -4
4 -10z m-3783 -212 c-2 -13 -4 -5 -4 17 -1 22 1 32 4 23 2 -10 2 -28 0 -40z
m-877 -9 c0 -6 -4 -7 -10 -4 -5 3 -10 11 -10 16 0 6 5 7 10 4 6 -3 10 -11 10
-16z m-1210 -39 c0 -5 -4 -10 -10 -10 -5 0 -10 5 -10 10 0 6 5 10 10 10 6 0
10 -4 10 -10z m4240 -4 c0 -8 -4 -18 -10 -21 -5 -3 -10 3 -10 14 0 12 5 21 10
21 6 0 10 -6 10 -14z m-6902 -105 c4 -12 71 -55 91 -58 7 -1 30 -18 50 -37 20
-20 42 -36 49 -36 7 0 11 -3 10 -7 -1 -5 5 -21 12 -38 7 -16 13 -33 12 -37 -1
-5 2 -8 8 -8 24 0 6 -46 -35 -92 -42 -47 -58 -88 -35 -88 14 0 33 -45 69 -164
34 -109 31 -130 -17 -141 -16 -3 -39 -19 -51 -36 -19 -26 -59 -51 -83 -53 -3
-1 -32 37 -63 84 -71 107 -83 120 -110 120 -33 0 -46 -22 -51 -87 -3 -32 -8
-65 -11 -73 -3 -8 -5 -23 -4 -32 1 -10 -3 -18 -8 -18 -6 0 -11 9 -11 19 0 14
-5 18 -20 14 -11 -3 -20 0 -20 6 0 6 -5 11 -11 11 -5 0 -8 -3 -6 -8 3 -4 -15
-8 -39 -9 -33 -1 -46 3 -54 16 -15 28 -61 54 -100 56 -46 3 -48 4 -31 14 12 8
10 14 -10 35 -13 14 -28 26 -34 26 -14 0 -50 57 -66 102 -11 32 -11 42 3 72
15 30 15 36 1 56 -13 18 -13 28 -3 66 12 41 10 76 -6 162 -5 27 -3 32 13 32
11 0 28 8 39 18 26 24 134 82 153 82 9 0 31 -9 49 -20 35 -22 82 -26 112 -10
10 5 28 25 39 44 l21 34 72 -3 c40 -2 74 -8 76 -14z m6881 -8 c0 -25 -1 -25
-8 -8 -5 11 -7 23 -4 28 8 14 13 7 12 -20z m-1829 -2 c0 -5 -9 -7 -20 -4 -11
3 -20 7 -20 9 0 2 9 4 20 4 11 0 20 -4 20 -9z m-2325 -41 c8 -13 -5 -13 -25 0
-13 8 -13 10 2 10 9 0 20 -4 23 -10z m285 -229 c-1 -10 -50 53 -50 63 0 6 11
-5 25 -24 14 -19 25 -36 25 -39z m35 -3 c5 -18 3 -28 -4 -28 -6 0 -11 13 -11
28 0 15 -4 33 -10 40 -6 8 -5 8 4 0 8 -7 18 -25 21 -40z m-1740 -129 c-4 -5 1
-12 10 -15 9 -4 14 -12 11 -19 -11 -29 23 -23 34 6 7 16 16 29 21 29 12 0 11
-17 -1 -40 -13 -24 11 -44 44 -36 15 4 32 -1 47 -13 13 -10 33 -20 44 -23 16
-3 20 -11 18 -43 -3 -60 -4 -62 -32 -61 -21 1 -27 -4 -29 -27 -3 -22 -7 -27
-22 -22 -16 5 -17 2 -10 -31 11 -49 3 -67 -27 -59 -13 3 -28 3 -33 0 -10 -6
17 -65 34 -71 22 -9 5 -67 -30 -101 -19 -19 -35 -44 -35 -58 -1 -14 -2 -30 -3
-37 -1 -14 -49 -28 -77 -23 -22 4 -125 -10 -186 -26 -35 -9 -51 -8 -91 6 -47
17 -53 17 -100 2 -28 -10 -60 -17 -71 -17 -12 0 -26 -9 -33 -20 -15 -23 -38
-27 -38 -5 0 8 5 15 10 15 6 0 6 6 -2 14 -7 7 -19 13 -28 12 -11 -1 -16 13
-20 51 -6 56 -13 69 -45 75 -42 8 -11 74 50 105 16 9 33 21 37 27 13 18 9 72
-7 102 -13 25 -13 30 0 44 8 9 15 25 15 36 0 30 20 49 72 70 46 19 68 45 68
84 0 33 16 31 63 -10 35 -31 53 -40 81 -40 34 0 36 2 42 40 7 44 12 49 61 66
28 10 38 9 68 -7 45 -24 65 -24 65 1 0 11 5 20 11 20 5 0 7 5 3 12 -4 7 -3 8
5 4 6 -4 9 -12 6 -17z m1599 0 c-3 -5 1 -9 10 -9 8 0 13 -7 12 -15 -1 -9 -5
-15 -9 -15 -4 0 -15 0 -25 0 -27 0 -56 25 -50 42 4 10 16 13 37 10 17 -2 28
-8 25 -13z m3884 -46 c-10 -2 -28 -2 -40 0 -13 2 -5 4 17 4 22 1 32 -1 23 -4z
m-3813 -23 c13 0 25 -6 28 -12 3 -9 9 -7 20 7 15 20 16 19 26 -8 13 -35 14
-57 2 -57 -10 0 -9 -18 1 -35 3 -5 2 -19 -3 -30 -7 -19 -8 -19 -8 3 -1 20 -14
27 -47 23 -15 -2 -54 82 -53 111 0 13 3 17 6 11 2 -7 15 -13 28 -13z m-1315
-289 c18 -20 92 -67 101 -64 10 3 99 -77 99 -88 0 -14 -18 -10 -38 9 -67 64
-92 75 -92 42 0 -10 -5 -30 -11 -44 l-12 -25 -51 26 c-64 32 -146 116 -139
143 9 32 114 33 143 1z m834 -112 c26 -29 44 -54 42 -57 -3 -2 5 -13 17 -23
12 -10 17 -18 10 -19 -6 0 -14 4 -17 9 -3 5 -25 7 -49 5 -23 -2 -33 -1 -22 2
47 14 48 25 2 73 -24 25 -50 55 -58 65 -30 40 27 -2 75 -55z m156 -38 c0 -5 3
-16 6 -25 4 -11 1 -16 -10 -16 -10 0 -16 9 -16 25 0 14 5 25 10 25 6 0 10 -4
10 -9z m-800 -70 c16 -39 4 -58 -21 -35 -19 17 -25 45 -12 57 12 13 21 7 33
-22z m829 -16 c7 -3 19 -1 28 7 15 12 15 11 5 -9 -10 -18 -9 -28 8 -58 22 -39
19 -55 -9 -55 -9 0 -21 -4 -26 -9 -6 -4 -25 -11 -44 -15 -35 -6 -34 -8 -15 40
3 5 -7 23 -21 40 -43 50 -28 87 30 74 18 -4 38 -11 44 -15z m116 -75 c3 -5 -1
-10 -10 -10 -9 0 -13 5 -10 10 3 6 8 10 10 10 2 0 7 -4 10 -10z m-263 -12 c-9
-9 -15 -9 -24 0 -9 9 -7 12 12 12 19 0 21 -3 12 -12z m-53 -19 c-16 -10 -23
-4 -14 10 3 6 11 8 17 5 6 -4 5 -9 -3 -15z m5021 -30 c0 -9 15 -28 33 -41 26
-19 45 -23 102 -23 39 -1 77 -4 85 -8 12 -6 15 -29 16 -112 l0 -104 -35 21
c-20 12 -57 42 -82 66 -38 36 -95 72 -115 72 -2 0 -4 -9 -4 -21 0 -11 -13 -33
-30 -47 -16 -15 -30 -32 -30 -39 0 -17 -49 -28 -63 -14 -6 6 -19 11 -29 11
-10 0 -21 7 -25 16 -4 11 -13 13 -34 9 -16 -4 -29 -3 -29 2 0 4 -3 18 -6 31
-7 26 10 30 34 6 15 -15 17 -15 26 6 8 18 6 25 -15 41 l-24 19 40 36 c22 20
66 53 99 75 46 31 62 37 72 28 8 -6 14 -20 14 -30z m-5268 -18 c51 -27 93 -52
94 -57 1 -5 -21 -29 -50 -54 -67 -57 -91 -93 -73 -108 7 -6 51 -18 98 -26 170
-30 323 -85 334 -118 4 -11 -6 -36 -24 -62 -38 -55 -38 -64 -3 -71 92 -20 119
-29 170 -57 79 -44 88 -52 90 -94 6 -89 -57 -186 -148 -226 -89 -39 -228 -6
-276 67 -28 42 -28 94 -1 166 14 36 22 70 19 75 -13 18 -109 54 -234 89 -32 8
-58 19 -58 23 0 4 -30 13 -66 20 -36 7 -83 21 -104 32 -55 28 -84 26 -106 -7
-25 -40 -105 -132 -210 -242 -50 -53 -112 -125 -139 -161 -58 -79 -153 -171
-171 -168 -7 2 -19 -6 -27 -17 -14 -19 -15 -18 -10 8 4 18 1 27 -7 27 -9 0 -9
4 1 17 8 10 9 14 2 10 -6 -4 -14 -3 -18 2 -3 6 -12 8 -21 4 -8 -3 -13 -8 -10
-10 10 -11 -34 -40 -68 -46 -29 -5 -44 -1 -74 19 -23 16 -44 23 -57 19 -11 -3
-39 -9 -62 -12 -35 -5 -47 -1 -72 19 -16 14 -54 36 -84 48 -32 13 -59 32 -65
44 -8 19 -6 24 19 35 18 8 29 20 29 32 0 12 5 17 10 14 6 -4 8 -16 4 -27 -5
-16 -3 -20 9 -15 10 4 24 -3 37 -20 11 -14 20 -23 20 -20 0 3 16 1 35 -3 32
-7 35 -6 35 14 0 11 -7 30 -15 40 -8 11 -15 17 -15 13 0 -4 -22 4 -50 19 -55
29 -87 26 -86 -8 1 -11 -5 -23 -13 -26 -10 -3 -12 0 -7 13 5 15 4 16 -8 6 -8
-7 -21 -9 -27 -5 -8 4 -9 3 -5 -4 5 -8 -3 -12 -25 -12 -18 0 -30 3 -26 6 3 3
1 18 -4 32 -12 32 0 45 43 47 28 1 56 25 29 25 -6 0 -11 5 -11 11 0 7 8 9 23
4 12 -3 27 -7 34 -7 6 -1 9 -7 6 -15 -3 -7 2 -13 10 -13 9 0 21 -8 26 -17 6
-10 11 -12 11 -5 0 6 -1 13 -2 15 -7 9 34 37 54 37 16 0 19 3 10 9 -11 7 -11
9 2 14 8 3 22 0 30 -8 7 -8 17 -11 21 -7 4 4 5 -2 3 -12 -2 -14 4 -21 19 -25
13 -3 31 -13 42 -22 21 -19 81 -18 141 0 19 6 47 11 62 11 19 0 32 9 48 34 11
19 24 36 28 38 4 2 25 27 46 56 21 28 46 58 56 65 11 7 46 50 79 94 33 45 69
88 78 95 24 18 93 99 93 110 0 19 -71 39 -115 33 -26 -4 -45 -3 -49 4 -9 15
12 51 29 51 8 0 15 8 15 18 0 10 28 46 63 80 68 68 74 69 132 27 17 -12 52
-33 79 -48 l50 -28 27 31 c15 16 39 34 53 40 14 5 26 18 28 32 3 23 21 29 110
36 9 1 59 -20 110 -47z m212 34 c-4 -8 -10 -15 -14 -15 -4 0 -10 7 -14 15 -4
10 1 15 14 15 13 0 18 -5 14 -15z m5445 -115 c45 -23 87 -81 67 -92 -30 -17
-118 6 -138 36 -18 26 -1 76 24 76 5 0 26 -9 47 -20z m276 -294 c72 -70 74
-73 68 -112 -4 -29 -1 -45 11 -56 9 -9 16 -26 16 -39 0 -18 -2 -19 -15 -9 -12
10 -20 9 -39 -3 -19 -13 -23 -23 -20 -56 2 -22 0 -42 -4 -45 -4 -3 -28 5 -52
16 -79 35 -98 39 -103 17 -3 -10 1 -44 9 -74 8 -30 13 -68 12 -84 -3 -39 -34
-48 -66 -18 -19 18 -25 19 -32 7 -16 -26 -49 -19 -60 14 -23 72 8 148 59 144
14 -1 36 2 48 6 21 7 21 8 -13 65 -19 32 -46 69 -59 81 -14 13 -25 33 -25 44
0 27 -8 37 -48 65 -18 13 -37 34 -42 47 -20 50 18 77 62 44 32 -24 67 -26 94
-5 10 8 27 15 37 15 10 0 16 4 13 9 -4 5 0 11 6 14 28 9 73 -19 143 -87z
m-7597 -128 c0 -27 -5 -38 -16 -38 -24 0 -52 30 -52 56 0 19 5 22 34 21 33 -1
35 -2 34 -39z m2560 -69 c2 -11 -8 -16 -33 -17 -37 -3 -46 11 -18 26 22 13 47
8 51 -9z m4373 -453 c11 -19 28 -38 37 -41 9 -3 22 -16 29 -30 9 -21 8 -27 -7
-35 -9 -5 -27 -7 -39 -5 -12 2 -21 -1 -21 -8 0 -8 -20 -12 -55 -13 -30 -1 -61
-7 -69 -13 -8 -7 -18 -11 -22 -9 -5 1 -29 -2 -54 -7 -25 -5 -51 -8 -57 -6 -7
1 -13 -3 -13 -9 0 -5 -8 -10 -17 -10 -14 0 -13 -3 5 -16 25 -17 30 -64 7 -64
-18 0 -18 5 -5 31 9 16 7 19 -10 19 -11 0 -20 4 -20 9 0 14 -31 22 -45 11 -6
-5 -21 -11 -33 -13 -12 -2 -29 -10 -39 -19 -31 -26 -43 -30 -58 -18 -8 7 -15
9 -15 4 0 -14 -31 35 -35 56 -5 28 71 76 150 96 17 4 32 10 35 13 17 20 187
92 238 100 85 15 91 13 113 -23z m-4031 -128 c8 -21 9 -22 10 -3 1 18 2 18 11
-3 5 -13 7 -28 4 -33 -3 -4 1 -19 10 -33 11 -16 13 -26 6 -31 -6 -3 -11 -1
-11 4 0 6 -8 11 -17 11 -17 -1 -17 -1 -1 -10 10 -6 14 -19 12 -32 l-5 -23 12
22 c13 25 39 39 39 20 -1 -19 -46 -47 -74 -45 -22 2 -26 7 -23 28 4 27 -17 67
-45 88 -26 19 -23 50 5 55 47 9 58 6 67 -15z"/>
<path d="M4141 9311 c-7 -5 -22 -6 -32 -4 -14 4 -19 0 -19 -16 0 -17 6 -21 30
-21 18 0 33 6 36 15 9 22 1 36 -15 26z"/>
<path d="M3862 9296 c4 -5 0 -15 -10 -22 -16 -12 -16 -13 0 -14 9 0 18 -4 20
-9 5 -14 42 -21 57 -12 19 12 6 45 -16 37 -9 -4 -25 1 -37 11 -12 10 -18 14
-14 9z"/>
<path d="M4303 9186 c4 -14 57 -21 57 -8 0 5 -14 12 -30 14 -19 3 -29 1 -27
-6z"/>
<path d="M4313 9133 c-18 -7 -16 -23 2 -23 8 0 15 7 15 15 0 8 -1 15 -2 14 -2
0 -9 -3 -15 -6z"/>
<path d="M3703 9039 c-14 -14 -6 -39 14 -39 8 0 23 5 34 11 16 8 18 13 8 25
-14 17 -41 18 -56 3z"/>
<path d="M3978 8953 c7 -3 16 -2 19 1 4 3 -2 6 -13 5 -11 0 -14 -3 -6 -6z"/>
<path d="M3774 8939 c-9 -15 1 -21 26 -17 21 3 21 3 1 15 -14 9 -22 9 -27 2z"/>
<path d="M3260 8784 c0 -9 5 -14 12 -12 18 6 21 28 4 28 -9 0 -16 -7 -16 -16z"/>
<path d="M2597 8513 c-13 -12 -7 -53 7 -53 14 0 29 37 20 52 -6 10 -18 10 -27
1z"/>
<path d="M2690 8500 c-8 -5 -12 -12 -9 -15 4 -3 12 1 19 10 14 17 11 19 -10 5z"/>
<path d="M2675 8451 c-3 -6 -15 -11 -26 -11 -15 0 -17 -4 -10 -17 5 -10 12
-26 15 -35 9 -31 36 -21 36 13 0 21 4 28 13 23 7 -5 7 -1 -3 12 -8 10 -15 20
-16 22 -1 2 -5 -1 -9 -7z"/>
<path d="M7670 9211 c0 -14 5 -19 15 -14 17 6 15 25 -3 31 -7 2 -12 -5 -12
-17z"/>
<path d="M1410 862 c0 -11 7 -22 15 -26 9 -3 15 0 15 8 0 7 -7 19 -15 26 -12
10 -15 9 -15 -8z"/>
<path d="M6300 9123 c0 -12 5 -25 11 -28 19 -12 22 3 5 27 l-16 22 0 -21z"/>
<path d="M6178 9053 c7 -3 16 -2 19 1 4 3 -2 6 -13 5 -11 0 -14 -3 -6 -6z"/>
<path d="M6310 9030 c0 -5 5 -10 10 -10 6 0 10 5 10 10 0 6 -4 10 -10 10 -5 0
-10 -4 -10 -10z"/>
<path d="M7213 8001 c-10 -11 -26 -35 -36 -53 l-19 -33 31 34 c27 30 37 29 32
-1 0 -5 4 -8 9 -8 6 0 10 18 10 40 0 46 -2 47 -27 21z"/>
<path d="M7146 7902 c-3 -5 1 -9 9 -9 8 0 12 4 9 9 -3 4 -7 8 -9 8 -2 0 -6 -4
-9 -8z"/>
<path d="M7205 7879 c-4 -12 -2 -26 4 -32 8 -8 11 -2 11 21 0 37 -6 41 -15 11z"/>
<path d="M2961 7812 c2 -36 16 -91 19 -72 7 52 4 90 -7 94 -9 4 -13 -4 -12
-22z"/>
<path d="M7016 7725 c-3 -9 -2 -13 4 -10 6 3 10 2 10 -3 0 -12 -35 -43 -42
-37 -7 7 -58 -53 -58 -68 0 -6 7 -2 15 9 14 18 14 18 9 -3 -4 -12 -15 -29 -25
-39 -10 -9 -19 -21 -19 -27 0 -14 -73 -161 -85 -169 -5 -4 -12 -2 -16 3 -3 6
-6 -4 -7 -20 0 -17 3 -31 8 -31 16 0 142 161 136 176 -3 8 1 14 9 14 8 0 15 7
15 15 0 25 2 30 21 42 9 7 25 34 35 60 10 27 22 51 26 54 5 3 0 15 -11 27 -16
19 -20 20 -25 7z"/>
<path d="M6898 7573 c-18 -21 -31 -43 -25 -43 2 0 13 14 25 30 25 33 24 41 0
13z"/>
<path d="M6745 7349 c-4 -6 -5 -12 -2 -15 2 -3 7 2 10 11 7 17 1 20 -8 4z"/>
<path d="M6664 7248 c-16 -23 -36 -50 -45 -59 -17 -17 -79 -105 -79 -112 0 -2
6 -4 14 -4 8 0 12 5 10 11 -5 16 23 49 35 42 11 -7 43 33 35 46 -7 10 46 74
58 71 4 -2 8 8 8 22 0 14 -2 25 -4 25 -2 0 -16 -19 -32 -42z m-44 -99 c-7 -11
-14 -18 -17 -15 -3 3 0 12 7 21 18 21 23 19 10 -6z"/>
<path d="M6665 7199 c-4 -6 -5 -12 -2 -15 2 -3 7 2 10 11 7 17 1 20 -8 4z"/>
<path d="M6540 7049 c0 -5 5 -7 10 -4 6 3 10 8 10 11 0 2 -4 4 -10 4 -5 0 -10
-5 -10 -11z"/>
<path d="M2760 6721 c0 -6 4 -12 8 -15 5 -3 9 1 9 9 0 8 -4 15 -9 15 -4 0 -8
-4 -8 -9z"/>
<path d="M7567 5552 c-12 -2 -16 -9 -13 -19 3 -8 6 -17 6 -19 0 -10 28 -2 33
9 7 20 -5 34 -26 29z"/>
<path d="M7498 5017 c-3 -19 -2 -25 4 -19 6 6 8 18 6 28 -3 14 -5 12 -10 -9z"/>
<path d="M7550 4953 c0 -4 5 -15 10 -23 8 -13 10 -13 10 2 0 9 -4 20 -10 23
-5 3 -10 3 -10 -2z"/>
<path d="M7580 4211 c0 -7 -4 -9 -10 -6 -6 4 -10 -6 -10 -22 l0 -28 15 29 c9
16 13 31 10 34 -3 3 -5 0 -5 -7z"/>
<path d="M7515 3880 c3 -5 8 -10 11 -10 2 0 4 5 4 10 0 6 -5 10 -11 10 -5 0
-7 -4 -4 -10z"/>
<path d="M3710 3777 c-8 -7 -16 -32 -18 -57 -7 -92 -29 -151 -74 -197 -23 -23
-36 -43 -29 -43 11 0 11 -3 1 -15 -28 -34 14 -13 76 38 l64 52 0 118 c0 64 -1
117 -2 117 -2 0 -10 -6 -18 -13z m-89 -284 c-8 -15 -10 -15 -11 -2 0 17 10 32
18 25 2 -3 -1 -13 -7 -23z"/>
<path d="M3549 3413 c-13 -16 -12 -17 4 -4 16 13 21 21 13 21 -2 0 -10 -8 -17
-17z"/>
<path d="M7400 3409 c0 -4 7 -9 15 -13 9 -3 15 0 15 8 0 7 -7 13 -15 13 -8 0
-15 -4 -15 -8z"/>
<path d="M7440 3400 c0 -5 5 -10 11 -10 5 0 7 5 4 10 -3 6 -8 10 -11 10 -2 0
-4 -4 -4 -10z"/>
<path d="M2675 3370 c-30 -8 -30 -8 8 -9 23 -1 36 3 32 9 -3 6 -7 9 -8 9 -1
-1 -15 -5 -32 -9z"/>
<path d="M2536 3225 c4 -8 10 -15 15 -15 4 0 6 7 3 15 -4 8 -10 15 -15 15 -4
0 -6 -7 -3 -15z"/>
<path d="M3480 3210 c-12 -7 -10 -11 10 -18 30 -11 32 -10 24 12 -7 18 -13 20
-34 6z"/>
<path d="M7403 3145 c0 -38 2 -53 4 -32 2 20 2 52 0 70 -2 17 -4 1 -4 -38z"/>
<path d="M6594 3115 c4 -11 10 -33 13 -50 3 -16 12 -34 20 -38 10 -6 11 -12 3
-22 -8 -9 -6 -14 6 -19 9 -4 19 -5 21 -2 7 7 -20 86 -29 86 -5 0 -6 5 -2 12 5
7 3 8 -6 3 -10 -6 -12 -4 -7 8 3 9 -1 21 -10 29 -15 11 -16 11 -9 -7z"/>
<path d="M6440 2983 c-35 -37 -57 -64 -47 -60 9 3 17 2 17 -3 0 -6 -10 -10
-22 -10 -17 0 -19 -3 -10 -12 7 -7 12 -19 12 -27 0 -9 12 -24 26 -34 30 -22
80 -15 89 13 4 13 4 201 0 200 0 0 -29 -30 -65 -67z"/>
<path d="M6595 2970 c10 -11 20 -18 23 -15 7 6 -18 35 -31 35 -5 0 -2 -9 8
-20z"/>
<path d="M3097 2973 c-10 -9 -8 -33 2 -33 5 0 11 9 14 20 5 20 -3 26 -16 13z"/>
<path d="M6653 2927 c9 -8 17 -24 17 -36 0 -12 4 -19 10 -16 6 3 10 -5 10 -19
0 -35 10 -56 26 -56 8 0 17 -7 20 -15 4 -8 12 -15 19 -15 9 0 8 10 -6 37 -10
21 -19 45 -19 55 0 10 -4 18 -10 18 -5 0 -10 7 -10 16 0 21 -20 38 -50 42 -23
2 -24 1 -7 -11z"/>
<path d="M7390 2838 c0 -23 3 -38 7 -34 10 10 11 76 1 76 -4 0 -8 -19 -8 -42z"/>
<path d="M6288 2816 c-21 -16 -24 -36 -5 -36 17 0 37 20 37 37 0 16 -10 16
-32 -1z"/>
<path d="M6080 2779 c0 -5 5 -7 10 -4 6 3 10 8 10 11 0 2 -4 4 -10 4 -5 0 -10
-5 -10 -11z"/>
<path d="M6156 2775 c-3 -9 0 -15 9 -15 8 0 15 7 15 15 0 8 -4 15 -9 15 -5 0
-11 -7 -15 -15z"/>
<path d="M6715 2780 c3 -5 8 -10 11 -10 2 0 4 5 4 10 0 6 -5 10 -11 10 -5 0
-7 -4 -4 -10z"/>
<path d="M5535 2740 c-3 -5 -1 -10 4 -10 6 0 11 5 11 10 0 6 -2 10 -4 10 -3 0
-8 -4 -11 -10z"/>
<path d="M8740 2739 c0 -5 5 -7 10 -4 6 3 10 8 10 11 0 2 -4 4 -10 4 -5 0 -10
-5 -10 -11z"/>
<path d="M7037 2546 c-6 -15 1 -26 15 -26 11 0 10 27 -1 34 -5 3 -11 0 -14 -8z"/>
<path d="M6705 2420 c-10 -11 -16 -22 -14 -24 2 -2 12 7 22 20 22 29 17 32 -8
4z"/>
<path d="M6740 2429 c0 -5 5 -7 10 -4 6 3 10 8 10 11 0 2 -4 4 -10 4 -5 0 -10
-5 -10 -11z"/>
<path d="M6625 2400 c4 -6 11 -8 16 -5 14 9 11 15 -7 15 -8 0 -12 -5 -9 -10z"/>
<path d="M6944 2272 c-119 -114 -204 -218 -204 -250 0 -10 9 -27 19 -36 11
-10 32 -42 47 -73 31 -60 25 -90 -15 -86 -16 2 -21 -3 -21 -22 0 -14 -4 -25
-9 -25 -5 0 -17 -21 -27 -47 -19 -53 -50 -93 -71 -93 -19 0 -16 -28 5 -39 13
-7 25 -2 51 20 19 15 39 25 44 22 5 -3 2 -10 -7 -15 -9 -5 -14 -13 -11 -19 4
-5 -1 -9 -9 -9 -8 0 -18 -4 -21 -10 -4 -7 3 -7 20 0 15 6 37 10 49 10 13 0 29
7 36 15 7 8 16 13 20 10 17 -10 70 17 70 36 0 10 -4 19 -10 19 -5 0 -10 7 -10
15 0 8 7 15 15 15 8 0 15 7 15 15 0 18 21 20 38 3 14 -14 118 17 126 38 12 31
6 63 -14 74 -24 13 -27 0 -7 -30 17 -29 -11 -47 -31 -19 -17 25 -30 24 -85 -5
-49 -27 -59 -21 -50 27 5 23 1 29 -25 38 -44 15 -49 62 -13 136 16 32 34 75
40 96 13 39 20 44 38 26 8 -8 13 -8 17 0 10 16 26 13 26 -4 0 -8 5 -15 10 -15
6 0 10 -8 10 -17 0 -10 14 5 30 32 21 36 30 63 30 95 0 30 -3 40 -9 31 -6 -10
-9 1 -8 30 1 24 8 49 16 55 10 8 11 18 5 37 -9 26 -10 25 -120 -81z m-140
-547 c3 -9 0 -15 -9 -15 -8 0 -15 7 -15 15 0 8 4 15 9 15 5 0 11 -7 15 -15z"/>
<path d="M3845 2050 c4 -6 11 -8 16 -5 14 9 11 15 -7 15 -8 0 -12 -5 -9 -10z"/>
<path d="M7000 2017 c0 -19 -8 -42 -20 -55 -31 -33 -24 -34 25 -4 28 16 43 32
40 40 -3 8 -5 22 -5 33 0 12 -7 19 -20 19 -16 0 -20 -7 -20 -33z"/>
<path d="M6980 1882 c-22 -7 -30 -25 -18 -39 12 -15 32 -18 24 -4 -4 5 -1 11
5 13 6 2 10 11 8 19 -2 9 -11 14 -19 11z"/>
<path d="M7045 1870 c-3 -5 -1 -10 4 -10 6 0 11 5 11 10 0 6 -2 10 -4 10 -3 0
-8 -4 -11 -10z"/>
<path d="M4020 1845 c0 -2 18 -14 39 -25 32 -16 41 -17 50 -6 9 11 6 15 -14
20 -14 4 -30 4 -35 1 -6 -4 -10 -1 -10 4 0 6 -7 11 -15 11 -8 0 -15 -2 -15 -5z"/>
<path d="M6195 1506 c-26 -19 -8 -40 24 -29 18 7 20 11 9 26 -12 16 -15 16
-33 3z"/>
<path d="M6050 1475 c-14 -8 -34 -18 -44 -22 -20 -6 -20 -6 0 -14 38 -15 83
-10 94 11 20 38 -6 51 -50 25z"/>
<path d="M5870 1430 c0 -5 7 -10 15 -10 8 0 15 5 15 10 0 6 -7 10 -15 10 -8 0
-15 -4 -15 -10z"/>
<path d="M5924 1322 c-22 -14 -24 -54 -3 -80 10 -14 19 -29 19 -34 0 -9 25
-38 32 -38 2 0 4 29 5 65 1 46 -3 69 -13 80 -17 17 -24 18 -40 7z"/>
<path d="M5248 610 c-7 -3 -15 -14 -16 -25 -4 -18 -1 -17 18 5 20 22 22 22 16
5 -5 -16 -1 -21 16 -22 26 -2 61 15 53 26 -6 11 -69 19 -87 11z"/>
</g>
</svg>
